<svg version="1.1" id="Laag_1" xmlns="http://www.w3.org/2000/svg" x="0" y="0" viewBox="0 0 1000 731.4" style="enable-background:new 0 0 1000 731.4" xml:space="preserve"><style>.st1{fill:#2f358c}.st3{fill:#609744}.st4{fill:#fff}.st5{fill:#cdcbe6}</style><circle cx="430.4" cy="365.7" r="365.7" style="fill:#f4991d"/><path class="st1" d="m0 203.2 200.8-21s-71.9-58.1-79.7-85.1c0 0-3-15 21-22.8S268 26.4 268 26.4s146.9-45.6 215.8 133.1l122.9-19.2v19.2l215.8-6 7.8 74.9h54L948.9 452 667.2 670.8s-64.7 55.7-206.8 58.7L48.6 565.9 0 203.2z"/><path d="M146.3 98.3s82.2-31.1 88.7-37.8c7.2-7.2 104.9-43.8 172.6 15 0 0 47.9 46.8 63 103.1l28.8 58.7 15 27.6s4.2 10.2 0 12c-4.2 1.8-34.8-46.8-34.8-46.8l-13.8-19.8s-12-15.6-46.8-8.4c-34.8 7.2-88.1 13.2-126.5 6.6-37.7-7.1-126.5-82.6-146.2-110.2z" style="fill:#75b947"/><path class="st3" d="M302.1 208c-38.4-6.6-127.1-82.2-146.9-109.7 0 0 82.2-31.1 88.7-37.8 3.6-3.6 35.4-16.8 74.9-18-43.2-1.2-79.7 13.8-83.9 18-7.1 7.2-88.6 37.8-88.6 37.8C166.1 126.5 254.8 202 293.2 208c13.2 2.4 27.6 3 42.5 3-12-.6-23.4-1.2-33.6-3z"/><path class="st3" d="M218.2 119.3s37.8-18.6 58.1 0c40.2 36.5 127.1 55.7 143.9 52.2 0 0-86.9 19.8-112.1 6-33-18-52.8-42.6-89.9-58.2z"/><path class="st4" d="m30.6 230.2 46.8 320.7 68.9-4.8-10.8-137.9 68.9-6-9-60-68.9 9-6-58.1 83.9-15-12-76.8-161.8 28.9zm358.5 27 33 262 64.1-7.2-9-131.9 104.9 121.1 49.8-6-39-317.7-70.8 7.8 15 133.1-82.1-75-65.9 13.8z"/><path class="st5" d="m455 249.4 82.2 74.9-.6-6.6-81.6-74.3-66 13.8.6 5.4 65.4-13.2zm137.8-66 38.4 311.8h.6l-39-317.7-70.8 7.8 1.2 6 69.6-7.9zM477.2 386.1l9 125.9-8.4-125.9h-.6z"/><path class="st4" d="m610.9 189.4 8.9 70.8 41.9 1.2L680.9 482l79.7-1.8-7.8-224.8 55.7-4.2-10.8-76.8-186.8 15z"/><path class="st5" d="m618 196.6 57-7.8 122.9-14.4-187.1 15 9 70.8h6l-7.8-63.6zm51 72-6.6-.6L681 482l6.6-.6L669 268.6z"/><path class="st4" d="m306.4 240.4-67.7 7.8-28.8 292.6 54-3 13.8-77.9 39-4.8 31.7 71.9 57-7.8-99-278.8zm-30 169.6 7.8-50.9h12l18 46.8-37.8 4.1z"/><path class="st5" d="m240.4 250.6 66.5-9.6-.6-.6-67.1 7.8-28.8 291.9 12-.6 18-288.9zm118.7 274.5-33.6-70.8-7.8 1.2 30.6 71.4 57-7.8v-1.8l-46.2 7.8z"/><path class="st4" d="M871.6 260.2 781.7 274l3 199.6 47.9-4.8 3-50.9 27-3 21 41.9 50.9-1.8-62.9-194.8zM850 375.3c-16.8 1.2-21-8.4-24-18l39-4.2c.1 0 1.8 20.9-15 22.2z"/><path d="m793.7 278.2 80.9-9-3-9.6-89.9 13.8 3 199h4.2l4.8-194.2zm79.7 83.3-9.6.6c-1.2 6-4.8 12.6-14.4 13.2-4.8.6-9-.6-12-1.8 3 5.4 8.4 9.6 19.8 9.6 16.8-.7 16.2-21.6 16.2-21.6zm-4.8 60.5-1.8.6 16.8 33.6h.6L868.6 422z" style="fill:#c6c3e1"/><path class="st5" d="m45.6 338.7 33.6 212.2 13.8-1.2-39-205-8.4-6z"/><path class="st1" d="m969.3 428.6-5.4 1.2-.6-1.8 12.6-2.4.6 1.8-5.4 1.2 2.4 15.6-2.4.6-1.8-16.2zm27 3.6c-.6-2.4-1.2-5.4-1.8-7.2 0 2.4-.6 4.2-1.2 7.2l-1.8 9h-1.8l-4.2-7.8c-1.2-2.4-2.4-4.2-3-6.6.6 2.4.6 4.8 1.2 7.8l.6 7.2-2.4.6-1.8-17.4 3-.6 4.2 7.8c1.2 1.8 1.8 3.6 3 5.4 0-1.8.6-3.6.6-6l1.8-9 3-.6 4.2 16.8-2.4.6-1.2-7.2z"/></svg>